<svg xmlns="http://www.w3.org/2000/svg" viewBox="0 0 308 128" aria-label="Cint™" fill="#fff"><path
        d="M307.9 54.9h-22.7V93c0 9.1 4.8 13.8 13 13.8h9.7v19.8h-12.2c-19.6 0-32.5-11.4-32.5-31.5V9.3h22v27.2h22.7v18.4zM218.6 35c20.3 0 33.6 14.7 33.6 35.8v55.8h-22V75.4c0-12.3-7.5-20.9-18.7-20.9-12.3 0-20.9 9.7-20.9 22.9v49.2h-22V36.5h22v9.2c8.7-8 19.4-10.7 28-10.7zm-85.3 91.6V36.5h22v90.1h-22zM144.2 0c7.3 0 13.6 6.4 13.6 13.9 0 7.2-6.2 13.4-13.6 13.4s-13.6-6.3-13.6-13.4c0-7.5 6.2-13.9 13.6-13.9zM63.9 20.2c-20.2 0-40.5 15.6-40.5 44s20.4 43.4 40.5 43.4c22.7 0 33-12.5 36.6-27h22.8c-5 30.4-28.7 47.4-59.4 47.4C27.7 128-.2 101.4 0 64.2.2 28.6 27.7 0 63.9 0c30.7 0 55.3 18.1 59.4 48.4h-23.2c-3.9-16.6-15.7-28.2-36.2-28.2z"></path></svg>
